# xmcd
#
# Track frame offsets:
#	150
#	32303
#	67518
#	107464
#	127606
#	158033
#	195252
#	225018
#	248803
#
# Disc length: 3780 seconds
#
# Revision: 0
# Processed by: cddbd v1.5.2PL0 Copyright (c) Steve Scherf et al.
# Submitted via: EasyCDDAExtractor 11.1.0.1
#
DISCID=4b0ec209
DTITLE=Kiss - Alive 35 - Harwall Arena, Helsinki, Finland 27-05-2008 [CD2]
DYEAR=2008
DGENRE=
TTITLE0=Let Me Go Rock 'N' Roll
TTITLE1=Black Diamond
TTITLE2=Rock And Roll All Nite
TTITLE3=Shout It Out Loud
TTITLE4=Lick It Up - (Won't Get Fooled Again - I Want You)
TTITLE5=I Love It Loud 
TTITLE6=I Was Made For Lovin' You
TTITLE7=Love Gun
TTITLE8=Detroit Rock City
EXTD=
EXTT0=
EXTT1=
EXTT2=
EXTT3=
EXTT4=
EXTT5=
EXTT6=
EXTT7=
EXTT8=
PLAYORDER=
